<svg xmlns="http://www.w3.org/2000/svg" viewBox="0 0 512 512" role="img">
<defs>
 <radialGradient id="bg" cx="50%" cy="38%"><stop offset="0" stop-color="#9e3f35" stop-opacity=".42"/><stop offset=".55" stop-color="#071018" stop-opacity=".45"/><stop offset="1" stop-color="#03070b"/></radialGradient>
 <filter id="glow"><feGaussianBlur stdDeviation="5" result="b"/><feMerge><feMergeNode in="b"/><feMergeNode in="SourceGraphic"/></feMerge></filter>
 <linearGradient id="metal" x1="0" y1="0" x2="1" y2="1"><stop stop-color="#eef6ff" stop-opacity=".85"/><stop offset=".45" stop-color="#9e3f35"/><stop offset="1" stop-color="#111821"/></linearGradient>
</defs>
<rect width="512" height="512" rx="42" fill="url(#bg)"/>
<circle cx="256" cy="256" r="205" fill="none" stroke="#9e3f35" stroke-opacity=".28" stroke-width="3"/>
<circle cx="256" cy="256" r="174" fill="none" stroke="#d7b96b" stroke-opacity=".14" stroke-width="2" stroke-dasharray="8 16"/>
<g filter="url(#glow)"><path d="M140 360 C100 252 194 200 286 250 C372 296 332 390 236 372 C154 356 170 294 230 288 C294 282 352 226 316 150 C298 112 248 104 216 134" fill="none" stroke="#9e3f35" stroke-width="42" stroke-linecap="round"/><path d="M195 150 Q224 92 286 122 L330 176 Q280 210 222 184Z" fill="#25121a" stroke="#9e3f35" stroke-width="8"/><circle cx="272" cy="154" r="12" fill="#f7d77d"/><path d="M330 176 L378 164 M378 164 L402 148 M378 164 L404 180" stroke="#ef665e" stroke-width="7" stroke-linecap="round"/></g>
<path d="M72 420 Q256 478 440 420" fill="none" stroke="#d7b96b" stroke-opacity=".3" stroke-width="4"/>
</svg>