<svg xmlns="http://www.w3.org/2000/svg" viewBox="0 0 512 512" role="img">
<defs>
 <radialGradient id="bg" cx="50%" cy="38%"><stop offset="0" stop-color="#b44d2d" stop-opacity=".42"/><stop offset=".55" stop-color="#071018" stop-opacity=".45"/><stop offset="1" stop-color="#03070b"/></radialGradient>
 <filter id="glow"><feGaussianBlur stdDeviation="5" result="b"/><feMerge><feMergeNode in="b"/><feMergeNode in="SourceGraphic"/></feMerge></filter>
 <linearGradient id="metal" x1="0" y1="0" x2="1" y2="1"><stop stop-color="#eef6ff" stop-opacity=".85"/><stop offset=".45" stop-color="#b44d2d"/><stop offset="1" stop-color="#111821"/></linearGradient>
</defs>
<rect width="512" height="512" rx="42" fill="url(#bg)"/>
<circle cx="256" cy="256" r="205" fill="none" stroke="#b44d2d" stroke-opacity=".28" stroke-width="3"/>
<circle cx="256" cy="256" r="174" fill="none" stroke="#d7b96b" stroke-opacity=".14" stroke-width="2" stroke-dasharray="8 16"/>
<g filter="url(#glow)"><path d="M256 148 Q218 130 202 174 Q238 202 256 244 Q274 202 310 174 Q294 130 256 148Z" fill="#121923" stroke="#b44d2d" stroke-width="8"/><path d="M238 214 Q138 146 100 248 Q160 244 230 312" fill="#17212d" stroke="#b44d2d" stroke-width="12"/><path d="M274 214 Q374 146 412 248 Q352 244 282 312" fill="#17212d" stroke="#b44d2d" stroke-width="12"/><path d="M236 262 L276 262 L256 292Z" fill="#d7b96b"/><circle cx="240" cy="188" r="8" fill="#f7d77d"/><circle cx="272" cy="188" r="8" fill="#f7d77d"/></g>
<path d="M72 420 Q256 478 440 420" fill="none" stroke="#d7b96b" stroke-opacity=".3" stroke-width="4"/>
</svg>