<svg xmlns="http://www.w3.org/2000/svg" viewBox="0 0 512 512" role="img">
<defs>
 <radialGradient id="bg" cx="50%" cy="38%"><stop offset="0" stop-color="#b96a56" stop-opacity=".42"/><stop offset=".55" stop-color="#071018" stop-opacity=".45"/><stop offset="1" stop-color="#03070b"/></radialGradient>
 <filter id="glow"><feGaussianBlur stdDeviation="5" result="b"/><feMerge><feMergeNode in="b"/><feMergeNode in="SourceGraphic"/></feMerge></filter>
 <linearGradient id="metal" x1="0" y1="0" x2="1" y2="1"><stop stop-color="#eef6ff" stop-opacity=".85"/><stop offset=".45" stop-color="#b96a56"/><stop offset="1" stop-color="#111821"/></linearGradient>
</defs>
<rect width="512" height="512" rx="42" fill="url(#bg)"/>
<circle cx="256" cy="256" r="205" fill="none" stroke="#b96a56" stroke-opacity=".28" stroke-width="3"/>
<circle cx="256" cy="256" r="174" fill="none" stroke="#d7b96b" stroke-opacity=".14" stroke-width="2" stroke-dasharray="8 16"/>
<g filter="url(#glow)"><path d="M256 330 C120 390 90 160 174 146" fill="none" stroke="#b96a56" stroke-width="22" stroke-linecap="round" opacity="0.42"/><path d="M256 330 C148 350 134 205 194 153" fill="none" stroke="#b96a56" stroke-width="22" stroke-linecap="round" opacity="0.475"/><path d="M256 330 C176 390 178 250 214 160" fill="none" stroke="#b96a56" stroke-width="22" stroke-linecap="round" opacity="0.53"/><path d="M256 330 C204 350 222 160 234 167" fill="none" stroke="#b96a56" stroke-width="22" stroke-linecap="round" opacity="0.585"/><path d="M256 330 C232 390 266 205 254 174" fill="none" stroke="#b96a56" stroke-width="22" stroke-linecap="round" opacity="0.64"/><path d="M256 330 C260 350 310 250 274 181" fill="none" stroke="#b96a56" stroke-width="22" stroke-linecap="round" opacity="0.6950000000000001"/><path d="M256 330 C288 390 354 160 294 188" fill="none" stroke="#b96a56" stroke-width="22" stroke-linecap="round" opacity="0.75"/><path d="M256 330 C316 350 398 205 314 195" fill="none" stroke="#b96a56" stroke-width="22" stroke-linecap="round" opacity="0.8049999999999999"/><path d="M256 330 C344 390 442 250 334 202" fill="none" stroke="#b96a56" stroke-width="22" stroke-linecap="round" opacity="0.86"/><path d="M170 168 L202 98 L234 166 Q256 148 278 166 L310 98 L342 168 L322 330 Q256 384 190 330Z" fill="#4d2830" stroke="#b96a56" stroke-width="9"/><circle cx="218" cy="238" r="12" fill="#f7d77d"/><circle cx="294" cy="238" r="12" fill="#f7d77d"/><path d="M244 284 L268 284 L256 306Z" fill="#e7d6ba"/></g>
<path d="M72 420 Q256 478 440 420" fill="none" stroke="#d7b96b" stroke-opacity=".3" stroke-width="4"/>
</svg>