<svg xmlns="http://www.w3.org/2000/svg" viewBox="0 0 512 512" role="img">
<defs>
 <radialGradient id="bg" cx="50%" cy="38%"><stop offset="0" stop-color="#49336f" stop-opacity=".42"/><stop offset=".55" stop-color="#071018" stop-opacity=".45"/><stop offset="1" stop-color="#03070b"/></radialGradient>
 <filter id="glow"><feGaussianBlur stdDeviation="5" result="b"/><feMerge><feMergeNode in="b"/><feMergeNode in="SourceGraphic"/></feMerge></filter>
 <linearGradient id="metal" x1="0" y1="0" x2="1" y2="1"><stop stop-color="#eef6ff" stop-opacity=".85"/><stop offset=".45" stop-color="#49336f"/><stop offset="1" stop-color="#111821"/></linearGradient>
</defs>
<rect width="512" height="512" rx="42" fill="url(#bg)"/>
<circle cx="256" cy="256" r="205" fill="none" stroke="#49336f" stroke-opacity=".28" stroke-width="3"/>
<circle cx="256" cy="256" r="174" fill="none" stroke="#d7b96b" stroke-opacity=".14" stroke-width="2" stroke-dasharray="8 16"/>
<g filter="url(#glow)"><path d="M220 220 L70 120" stroke="#49336f" stroke-width="14" stroke-linecap="round"/><path d="M220 250 L70 206" stroke="#49336f" stroke-width="14" stroke-linecap="round"/><path d="M220 280 L70 292" stroke="#49336f" stroke-width="14" stroke-linecap="round"/><path d="M220 310 L70 378" stroke="#49336f" stroke-width="14" stroke-linecap="round"/><path d="M292 220 L442 120" stroke="#49336f" stroke-width="14" stroke-linecap="round"/><path d="M292 250 L442 206" stroke="#49336f" stroke-width="14" stroke-linecap="round"/><path d="M292 280 L442 292" stroke="#49336f" stroke-width="14" stroke-linecap="round"/><path d="M292 310 L442 378" stroke="#49336f" stroke-width="14" stroke-linecap="round"/><ellipse cx="256" cy="300" rx="92" ry="112" fill="#15101e" stroke="#49336f" stroke-width="10"/><circle cx="256" cy="190" r="58" fill="#24152f" stroke="#49336f" stroke-width="9"/><circle cx="220" cy="176" r="8" fill="#f7d77d"/><circle cx="244" cy="176" r="8" fill="#f7d77d"/><circle cx="268" cy="176" r="8" fill="#f7d77d"/><circle cx="292" cy="176" r="8" fill="#f7d77d"/><circle cx="220" cy="200" r="8" fill="#f7d77d"/><circle cx="244" cy="200" r="8" fill="#f7d77d"/><circle cx="268" cy="200" r="8" fill="#f7d77d"/><circle cx="292" cy="200" r="8" fill="#f7d77d"/></g>
<path d="M72 420 Q256 478 440 420" fill="none" stroke="#d7b96b" stroke-opacity=".3" stroke-width="4"/>
</svg>