<svg xmlns="http://www.w3.org/2000/svg" viewBox="0 0 512 512" role="img" aria-label="赤砂毒蠍">
<defs>
 <radialGradient id="bg" cx="50%" cy="38%"><stop offset="0" stop-color="#e0b45d" stop-opacity=".36"/><stop offset=".60" stop-color="#49381b" stop-opacity=".52"/><stop offset="1" stop-color="#03070b"/></radialGradient>
 <linearGradient id="body" x1="0" y1="0" x2="1" y2="1"><stop stop-color="#e0b45d" stop-opacity=".92"/><stop offset=".48" stop-color="#49381b"/><stop offset="1" stop-color="#0a1016"/></linearGradient>
 <filter id="glow"><feGaussianBlur stdDeviation="4" result="b"/><feMerge><feMergeNode in="b"/><feMergeNode in="SourceGraphic"/></feMerge></filter>
</defs>
<rect width="512" height="512" rx="42" fill="url(#bg)"/>
<circle cx="256" cy="256" r="205" fill="none" stroke="#e0b45d" stroke-opacity=".30" stroke-width="3"/>
<circle cx="256" cy="256" r="174" fill="none" stroke="#d7b96b" stroke-opacity=".17" stroke-width="2" stroke-dasharray="8 16"/>
<style>.body{fill:url(#body);stroke:#e0b45d;stroke-width:10;stroke-linecap:round;stroke-linejoin:round;filter:url(#glow)}.eye{fill:#f8dc82;filter:url(#glow)}</style>

<g class="body"><ellipse cx="260" cy="280" rx="78" ry="62"/><ellipse cx="250" cy="220" rx="54" ry="43"/>
<path d="M190 248 Q125 212 82 252 Q123 278 184 278"/><path d="M322 248 Q387 212 430 252 Q389 278 328 278"/>
<path d="M274 206 Q340 155 330 95 Q375 116 358 168 Q348 199 316 222"/>
<path d="M325 98 L351 61 L366 105 Z"/>
<path d="M195 304 L130 352 M220 323 L177 382 M292 323 L335 382 M317 304 L382 352"/></g>
<path d="M72 420 Q256 478 440 420" fill="none" stroke="#d7b96b" stroke-opacity=".35" stroke-width="4"/>
</svg>