<svg xmlns="http://www.w3.org/2000/svg" viewBox="0 0 512 512" role="img" aria-label="噬靈花妖">
<defs>
 <radialGradient id="bg" cx="50%" cy="38%"><stop offset="0" stop-color="#47c58a" stop-opacity=".36"/><stop offset=".60" stop-color="#163c31" stop-opacity=".52"/><stop offset="1" stop-color="#03070b"/></radialGradient>
 <linearGradient id="body" x1="0" y1="0" x2="1" y2="1"><stop stop-color="#47c58a" stop-opacity=".92"/><stop offset=".48" stop-color="#163c31"/><stop offset="1" stop-color="#0a1016"/></linearGradient>
 <filter id="glow"><feGaussianBlur stdDeviation="4" result="b"/><feMerge><feMergeNode in="b"/><feMergeNode in="SourceGraphic"/></feMerge></filter>
</defs>
<rect width="512" height="512" rx="42" fill="url(#bg)"/>
<circle cx="256" cy="256" r="205" fill="none" stroke="#47c58a" stroke-opacity=".30" stroke-width="3"/>
<circle cx="256" cy="256" r="174" fill="none" stroke="#d7b96b" stroke-opacity=".17" stroke-width="2" stroke-dasharray="8 16"/>
<style>.body{fill:url(#body);stroke:#47c58a;stroke-width:10;stroke-linecap:round;stroke-linejoin:round;filter:url(#glow)}.eye{fill:#f8dc82;filter:url(#glow)}</style>

<g class="body"><path d="M255 420 Q240 330 258 256" fill="none" stroke-width="28"/>
<path d="M255 320 Q185 292 153 330 Q209 348 257 350 M258 286 Q330 250 366 292 Q315 319 260 325"/>
<g transform="translate(256 205)"><ellipse rx="58" ry="112" transform="rotate(0)"/><ellipse rx="58" ry="112" transform="rotate(72)"/><ellipse rx="58" ry="112" transform="rotate(144)"/><ellipse rx="58" ry="112" transform="rotate(216)"/><ellipse rx="58" ry="112" transform="rotate(288)"/><circle r="69" fill="#0b1117"/><path d="M-42 -8 Q0 45 42 -8 Q0 18 -42 -8Z" fill="#e8d082"/></g></g>
<path d="M72 420 Q256 478 440 420" fill="none" stroke="#d7b96b" stroke-opacity=".35" stroke-width="4"/>
</svg>