<svg xmlns="http://www.w3.org/2000/svg" viewBox="0 0 512 512" role="img" aria-label="玄霜雪狼">
<defs>
 <radialGradient id="bg" cx="50%" cy="38%"><stop offset="0" stop-color="#55cce6" stop-opacity=".36"/><stop offset=".60" stop-color="#123a50" stop-opacity=".52"/><stop offset="1" stop-color="#03070b"/></radialGradient>
 <linearGradient id="body" x1="0" y1="0" x2="1" y2="1"><stop stop-color="#55cce6" stop-opacity=".92"/><stop offset=".48" stop-color="#123a50"/><stop offset="1" stop-color="#0a1016"/></linearGradient>
 <filter id="glow"><feGaussianBlur stdDeviation="4" result="b"/><feMerge><feMergeNode in="b"/><feMergeNode in="SourceGraphic"/></feMerge></filter>
</defs>
<rect width="512" height="512" rx="42" fill="url(#bg)"/>
<circle cx="256" cy="256" r="205" fill="none" stroke="#55cce6" stroke-opacity=".30" stroke-width="3"/>
<circle cx="256" cy="256" r="174" fill="none" stroke="#d7b96b" stroke-opacity=".17" stroke-width="2" stroke-dasharray="8 16"/>
<style>.body{fill:url(#body);stroke:#55cce6;stroke-width:10;stroke-linecap:round;stroke-linejoin:round;filter:url(#glow)}.eye{fill:#f8dc82;filter:url(#glow)}</style>

<g class="body"><path d="M130 150 L190 82 L218 154 Q256 132 294 154 L322 82 L382 150 L350 330 Q256 402 162 330Z"/>
<path d="M188 240 Q256 286 324 240 L300 344 Q256 376 212 344Z" fill="#0b1117"/>
<circle class="eye" cx="210" cy="228" r="13"/><circle class="eye" cx="302" cy="228" r="13"/><path d="M240 288 L272 288 L256 314Z" fill="#e8d082"/></g>
<path d="M72 420 Q256 478 440 420" fill="none" stroke="#d7b96b" stroke-opacity=".35" stroke-width="4"/>
</svg>