<svg xmlns="http://www.w3.org/2000/svg" viewBox="0 0 512 512" role="img" aria-label="寒晶冰蛛">
<defs>
 <radialGradient id="bg" cx="50%" cy="38%"><stop offset="0" stop-color="#55cce6" stop-opacity=".36"/><stop offset=".60" stop-color="#123a50" stop-opacity=".52"/><stop offset="1" stop-color="#03070b"/></radialGradient>
 <linearGradient id="body" x1="0" y1="0" x2="1" y2="1"><stop stop-color="#55cce6" stop-opacity=".92"/><stop offset=".48" stop-color="#123a50"/><stop offset="1" stop-color="#0a1016"/></linearGradient>
 <filter id="glow"><feGaussianBlur stdDeviation="4" result="b"/><feMerge><feMergeNode in="b"/><feMergeNode in="SourceGraphic"/></feMerge></filter>
</defs>
<rect width="512" height="512" rx="42" fill="url(#bg)"/>
<circle cx="256" cy="256" r="205" fill="none" stroke="#55cce6" stroke-opacity=".30" stroke-width="3"/>
<circle cx="256" cy="256" r="174" fill="none" stroke="#d7b96b" stroke-opacity=".17" stroke-width="2" stroke-dasharray="8 16"/>
<style>.body{fill:url(#body);stroke:#55cce6;stroke-width:10;stroke-linecap:round;stroke-linejoin:round;filter:url(#glow)}.eye{fill:#f8dc82;filter:url(#glow)}</style>

<g class="body"><ellipse cx="256" cy="270" rx="70" ry="92"/><circle cx="256" cy="178" r="55"/>
<path d="M205 222 L118 145 M196 253 L82 225 M198 290 L83 318 M211 326 L130 395
M307 222 L394 145 M316 253 L430 225 M314 290 L429 318 M301 326 L382 395" fill="none" stroke-width="20"/>
<circle class="eye" cx="237" cy="168" r="7"/><circle class="eye" cx="275" cy="168" r="7"/></g>
<path d="M72 420 Q256 478 440 420" fill="none" stroke="#d7b96b" stroke-opacity=".35" stroke-width="4"/>
</svg>