<svg xmlns="http://www.w3.org/2000/svg" viewBox="0 0 512 512" role="img" aria-label="砂海蠍王"><defs><radialGradient id="bg"><stop offset="0" stop-color="#d5a73d" stop-opacity=".42"/><stop offset=".7" stop-color="#3d2609" stop-opacity=".62"/><stop offset="1" stop-color="#020508"/></radialGradient><linearGradient id="body"><stop stop-color="#d5a73d"/><stop offset=".5" stop-color="#3d2609"/><stop offset="1" stop-color="#080d12"/></linearGradient><filter id="glow"><feGaussianBlur stdDeviation="5" result="b"/><feMerge><feMergeNode in="b"/><feMergeNode in="SourceGraphic"/></feMerge></filter></defs><rect width="512" height="512" rx="42" fill="url(#bg)"/><circle cx="256" cy="256" r="220" fill="none" stroke="#e6c86a" stroke-opacity=".42" stroke-width="4"/><circle cx="256" cy="256" r="190" fill="none" stroke="#d5a73d" stroke-opacity=".45" stroke-width="3" stroke-dasharray="12 13"/><style>.body{fill:url(#body);stroke:#d5a73d;stroke-width:11;stroke-linecap:round;stroke-linejoin:round;filter:url(#glow)}.eye{fill:#fff0a0;filter:url(#glow)}</style><g class="body"><ellipse cx="250" cy="285" rx="95" ry="72"/><ellipse cx="245" cy="205" rx="63" ry="50"/><path d="M170 245 Q95 190 48 245 Q98 292 170 278 M330 245 Q405 190 464 245 Q410 292 330 278"/><path d="M270 185 Q370 125 350 55 Q410 90 385 160 Q370 205 325 225"/><path d="M350 58 L390 20 L405 78 Z"/><path d="M185 320 L105 400 M225 340 L175 440 M300 340 L350 440 M330 320 L410 400" fill="none" stroke-width="28"/></g><path d="M70 455 Q256 490 442 455" fill="none" stroke="#e6c86a" stroke-opacity=".55" stroke-width="5"/></svg>