<svg xmlns="http://www.w3.org/2000/svg" viewBox="0 0 512 512" role="img" aria-label="寒晶巨狼"><defs><radialGradient id="bg"><stop offset="0" stop-color="#8cdcf2" stop-opacity=".42"/><stop offset=".7" stop-color="#173b52" stop-opacity=".62"/><stop offset="1" stop-color="#020508"/></radialGradient><linearGradient id="body"><stop stop-color="#8cdcf2"/><stop offset=".5" stop-color="#173b52"/><stop offset="1" stop-color="#080d12"/></linearGradient><filter id="glow"><feGaussianBlur stdDeviation="5" result="b"/><feMerge><feMergeNode in="b"/><feMergeNode in="SourceGraphic"/></feMerge></filter></defs><rect width="512" height="512" rx="42" fill="url(#bg)"/><circle cx="256" cy="256" r="220" fill="none" stroke="#e6c86a" stroke-opacity=".42" stroke-width="4"/><circle cx="256" cy="256" r="190" fill="none" stroke="#8cdcf2" stroke-opacity=".45" stroke-width="3" stroke-dasharray="12 13"/><style>.body{fill:url(#body);stroke:#8cdcf2;stroke-width:11;stroke-linecap:round;stroke-linejoin:round;filter:url(#glow)}.eye{fill:#fff0a0;filter:url(#glow)}</style><g class="body"><circle cx="256" cy="222" r="145"/><path d="M115 135 L185 45 L220 145 Q256 120 292 145 L327 45 L397 135 L365 360 Q256 450 147 360Z"/><path d="M175 270 Q256 330 337 270 L310 385 Q256 420 202 385Z" fill="#08121a"/><circle class="eye" cx="205" cy="244" r="15"/><circle class="eye" cx="307" cy="244" r="15"/><path d="M236 315 L276 315 L256 344Z" fill="#fff1a3"/></g><path d="M70 455 Q256 490 442 455" fill="none" stroke="#e6c86a" stroke-opacity=".55" stroke-width="5"/></svg>