<svg xmlns="http://www.w3.org/2000/svg" viewBox="0 0 512 512" role="img" aria-label="噬魂古藤妖"><defs><radialGradient id="bg"><stop offset="0" stop-color="#58c888" stop-opacity=".42"/><stop offset=".7" stop-color="#123c2a" stop-opacity=".62"/><stop offset="1" stop-color="#020508"/></radialGradient><linearGradient id="body"><stop stop-color="#58c888"/><stop offset=".5" stop-color="#123c2a"/><stop offset="1" stop-color="#080d12"/></linearGradient><filter id="glow"><feGaussianBlur stdDeviation="5" result="b"/><feMerge><feMergeNode in="b"/><feMergeNode in="SourceGraphic"/></feMerge></filter></defs><rect width="512" height="512" rx="42" fill="url(#bg)"/><circle cx="256" cy="256" r="220" fill="none" stroke="#e6c86a" stroke-opacity=".42" stroke-width="4"/><circle cx="256" cy="256" r="190" fill="none" stroke="#58c888" stroke-opacity=".45" stroke-width="3" stroke-dasharray="12 13"/><style>.body{fill:url(#body);stroke:#58c888;stroke-width:11;stroke-linecap:round;stroke-linejoin:round;filter:url(#glow)}.eye{fill:#fff0a0;filter:url(#glow)}</style><g class="body"><path d="M250 455 Q220 340 255 230" fill="none" stroke-width="44"/><path d="M248 330 Q130 300 75 375 Q165 405 252 385 M260 300 Q380 250 445 325 Q360 375 258 360"/><g transform="translate(256 185)"><ellipse rx="72" ry="145"/><ellipse rx="72" ry="145" transform="rotate(72)"/><ellipse rx="72" ry="145" transform="rotate(144)"/><ellipse rx="72" ry="145" transform="rotate(216)"/><ellipse rx="72" ry="145" transform="rotate(288)"/><circle r="88" fill="#07130d"/><path d="M-55 -15 Q0 58 55 -15 Q0 25 -55 -15Z" fill="#e3ce77"/><circle class="eye" cx="-25" cy="-18" r="10"/><circle class="eye" cx="25" cy="-18" r="10"/></g></g><path d="M70 455 Q256 490 442 455" fill="none" stroke="#e6c86a" stroke-opacity=".55" stroke-width="5"/></svg>