<svg xmlns="http://www.w3.org/2000/svg" viewBox="0 0 512 512" role="img" aria-label="深淵鮫將"><defs><radialGradient id="bg"><stop offset="0" stop-color="#4bb9dd" stop-opacity=".42"/><stop offset=".7" stop-color="#0c3048" stop-opacity=".62"/><stop offset="1" stop-color="#020508"/></radialGradient><linearGradient id="body"><stop stop-color="#4bb9dd"/><stop offset=".5" stop-color="#0c3048"/><stop offset="1" stop-color="#080d12"/></linearGradient><filter id="glow"><feGaussianBlur stdDeviation="5" result="b"/><feMerge><feMergeNode in="b"/><feMergeNode in="SourceGraphic"/></feMerge></filter></defs><rect width="512" height="512" rx="42" fill="url(#bg)"/><circle cx="256" cy="256" r="220" fill="none" stroke="#e6c86a" stroke-opacity=".42" stroke-width="4"/><circle cx="256" cy="256" r="190" fill="none" stroke="#4bb9dd" stroke-opacity=".45" stroke-width="3" stroke-dasharray="12 13"/><style>.body{fill:url(#body);stroke:#4bb9dd;stroke-width:11;stroke-linecap:round;stroke-linejoin:round;filter:url(#glow)}.eye{fill:#fff0a0;filter:url(#glow)}</style><g class="body"><path d="M50 285 Q145 110 370 185 Q435 205 485 265 Q430 338 360 355 Q145 420 50 285Z"/><path d="M482 265 L510 225 L505 305Z"/><path d="M185 205 L130 80 L280 185Z"/><path d="M210 350 L140 445 L315 365Z"/><path d="M345 225 Q385 250 425 230" fill="none" stroke-width="18"/><circle class="eye" cx="390" cy="235" r="13"/><path d="M365 292 Q415 330 455 280" fill="#061018"/></g><path d="M70 455 Q256 490 442 455" fill="none" stroke="#e6c86a" stroke-opacity=".55" stroke-width="5"/></svg>