<svg xmlns="http://www.w3.org/2000/svg" viewBox="0 0 512 512" role="img" aria-label="殘甲戰魂"><defs><radialGradient id="bg"><stop offset="0" stop-color="#d6dbe2" stop-opacity=".42"/><stop offset=".7" stop-color="#3d4653" stop-opacity=".62"/><stop offset="1" stop-color="#020508"/></radialGradient><linearGradient id="body"><stop stop-color="#d6dbe2"/><stop offset=".5" stop-color="#3d4653"/><stop offset="1" stop-color="#080d12"/></linearGradient><filter id="glow"><feGaussianBlur stdDeviation="5" result="b"/><feMerge><feMergeNode in="b"/><feMergeNode in="SourceGraphic"/></feMerge></filter></defs><rect width="512" height="512" rx="42" fill="url(#bg)"/><circle cx="256" cy="256" r="220" fill="none" stroke="#e6c86a" stroke-opacity=".42" stroke-width="4"/><circle cx="256" cy="256" r="190" fill="none" stroke="#d6dbe2" stroke-opacity=".45" stroke-width="3" stroke-dasharray="12 13"/><style>.body{fill:url(#body);stroke:#d6dbe2;stroke-width:11;stroke-linecap:round;stroke-linejoin:round;filter:url(#glow)}.eye{fill:#fff0a0;filter:url(#glow)}</style><g class="body"><path d="M175 62 H337 L380 190 L345 280 H167 L132 190Z"/><path d="M105 265 H407 L435 455 H77Z"/><path d="M82 285 L20 400 L90 435 L175 320 M430 285 L492 400 L422 435 L337 320" fill="none" stroke-width="34"/><circle class="eye" cx="215" cy="190" r="15"/><circle class="eye" cx="297" cy="190" r="15"/><path d="M195 245 H317" fill="none" stroke-width="20"/><path d="M100 115 L55 55 M412 115 L457 55" fill="none" stroke-width="20"/></g><path d="M70 455 Q256 490 442 455" fill="none" stroke="#e6c86a" stroke-opacity=".55" stroke-width="5"/></svg>